<svg xmlns="http://www.w3.org/2000/svg" width="1024" height="1024" viewBox="0 0 1024 1024"><rect width="1024" height="1024" fill="#0b1519"/><circle cx="512" cy="512" r="476" fill="#0e1b22" stroke="#d9a441" stroke-width="18.1"/><circle cx="512" cy="512" r="409.4" fill="none" stroke="#2c4651" stroke-width="3.8"/><line x1="512" y1="102.6" x2="512" y2="59.8" stroke="#d9a441" stroke-width="10.5" stroke-linecap="round"/><line x1="716.7" y1="157.5" x2="738.1" y2="120.4" stroke="#d9a441" stroke-width="4.8" stroke-linecap="round"/><line x1="866.5" y1="307.3" x2="903.6" y2="285.9" stroke="#d9a441" stroke-width="4.8" stroke-linecap="round"/><line x1="921.4" y1="512" x2="964.2" y2="512" stroke="#d9a441" stroke-width="10.5" stroke-linecap="round"/><line x1="866.5" y1="716.7" x2="903.6" y2="738.1" stroke="#d9a441" stroke-width="4.8" stroke-linecap="round"/><line x1="716.7" y1="866.5" x2="738.1" y2="903.6" stroke="#d9a441" stroke-width="4.8" stroke-linecap="round"/><line x1="512" y1="921.4" x2="512" y2="964.2" stroke="#d9a441" stroke-width="10.5" stroke-linecap="round"/><line x1="307.3" y1="866.5" x2="285.9" y2="903.6" stroke="#d9a441" stroke-width="4.8" stroke-linecap="round"/><line x1="157.5" y1="716.7" x2="120.4" y2="738.1" stroke="#d9a441" stroke-width="4.8" stroke-linecap="round"/><line x1="102.6" y1="512" x2="59.8" y2="512" stroke="#d9a441" stroke-width="10.5" stroke-linecap="round"/><line x1="157.5" y1="307.3" x2="120.4" y2="285.9" stroke="#d9a441" stroke-width="4.8" stroke-linecap="round"/><line x1="307.3" y1="157.5" x2="285.9" y2="120.4" stroke="#d9a441" stroke-width="4.8" stroke-linecap="round"/><polygon points="697.1,326.9 512,471.5 512,512" fill="#6b5018"/><polygon points="697.1,326.9 552.5,512 512,512" fill="#6b5018"/><polygon points="697.1,697.1 552.5,512 512,512" fill="#6b5018"/><polygon points="697.1,697.1 512,552.5 512,512" fill="#6b5018"/><polygon points="326.9,697.1 512,552.5 512,512" fill="#6b5018"/><polygon points="326.9,697.1 471.5,512 512,512" fill="#6b5018"/><polygon points="326.9,326.9 471.5,512 512,512" fill="#6b5018"/><polygon points="326.9,326.9 512,471.5 512,512" fill="#6b5018"/><polygon points="512,136 557.4,466.6 512,512" fill="#d9a441"/><polygon points="512,136 466.6,466.6 512,512" fill="#9a7320"/><polygon points="888,512 557.4,557.4 512,512" fill="#d9a441"/><polygon points="888,512 557.4,466.6 512,512" fill="#9a7320"/><polygon points="512,888 466.6,557.4 512,512" fill="#d9a441"/><polygon points="512,888 557.4,557.4 512,512" fill="#9a7320"/><polygon points="136,512 466.6,466.6 512,512" fill="#d9a441"/><polygon points="136,512 466.6,557.4 512,512" fill="#9a7320"/><circle cx="512" cy="512" r="35.7" fill="#0b1519" stroke="#d9a441" stroke-width="7.6"/><circle cx="512" cy="512" r="13.3" fill="#d9a441"/></svg>